<?xml version="1.0" standalone="no"?><!DOCTYPE svg PUBLIC "-//W3C//DTD SVG 1.1//EN" "http://www.w3.org/Graphics/SVG/1.1/DTD/svg11.dtd"><svg t="1576830229210" class="icon" viewBox="0 0 1024 1024" version="1.1" xmlns="http://www.w3.org/2000/svg" p-id="2740" xmlns:xlink="http://www.w3.org/1999/xlink" width="200" height="200"><defs><style type="text/css"></style></defs><path d="M267.636364 977.454545a93.090909 93.090909 0 0 1-55.854546-18.618181 93.090909 93.090909 0 0 1-37.236363-90.763637L209.454545 672.581818a46.545455 46.545455 0 0 0-13.963636-41.890909l-144.290909-139.636364a93.090909 93.090909 0 0 1 51.2-158.254545L302.545455 302.545455a46.545455 46.545455 0 0 0 34.90909-25.6l88.436364-179.2a93.090909 93.090909 0 0 1 167.563636 0l88.436364 179.2A46.545455 46.545455 0 0 0 721.454545 302.545455l200.145455 27.927272a93.090909 93.090909 0 0 1 51.2 158.254546l-144.290909 139.636363a46.545455 46.545455 0 0 0-13.963636 41.890909l34.90909 195.49091a93.090909 93.090909 0 0 1-37.236363 90.763636 93.090909 93.090909 0 0 1-100.072727 6.981818l-179.2-93.090909a48.872727 48.872727 0 0 0-44.218182 0l-179.2 93.090909a95.418182 95.418182 0 0 1-41.890909 13.963636zM512 93.090909a46.545455 46.545455 0 0 0-41.890909 25.6l-88.436364 179.2a93.090909 93.090909 0 0 1-69.818182 51.2l-202.472727 27.927273a46.545455 46.545455 0 0 0-37.236363 32.581818 46.545455 46.545455 0 0 0 11.636363 46.545455l144.290909 139.636363a93.090909 93.090909 0 0 1 27.927273 83.781818l-34.909091 195.490909a46.545455 46.545455 0 0 0 18.618182 46.545455 46.545455 46.545455 0 0 0 51.2 4.654545l179.2-93.090909a95.418182 95.418182 0 0 1 88.436364 0l179.2 93.090909a46.545455 46.545455 0 0 0 51.2-4.654545 46.545455 46.545455 0 0 0 18.618181-46.545455L768 679.563636a93.090909 93.090909 0 0 1 27.927273-83.781818l144.290909-139.636363a46.545455 46.545455 0 0 0 11.636363-46.545455 46.545455 46.545455 0 0 0-37.236363-32.581818L714.472727 349.090909a93.090909 93.090909 0 0 1-69.818182-51.2l-90.763636-179.2A46.545455 46.545455 0 0 0 512 93.090909z" fill="#FFA942" p-id="2741"></path></svg>